<svg width="150" viewBox="0 0 234 102" fill="none" class="h-8" xmlns="http://www.w3.org/2000/svg">
<g clip-path="url(#clip0_9_83)">
<path d="M26.8767 96.2663L27.0539 96.0877C27.6855 96.0877 28.2362 96.208 28.7137 96.4448C29.1874 96.6816 29.5571 97.0038 29.819 97.4153C30.0809 97.8229 30.2118 98.2927 30.2118 98.8206C30.2118 99.3913 30.0732 99.9076 29.7959 100.37C29.5186 100.832 29.1373 101.196 28.6521 101.46C28.1669 101.724 27.6239 101.856 27.0269 101.856C26.6842 101.856 26.2991 101.841 25.8639 101.81C25.4326 101.779 25.0321 101.763 24.6701 101.763C24.3081 101.763 23.9769 101.767 23.6534 101.779C23.326 101.79 23.0295 101.794 22.7638 101.794C22.7407 101.794 22.733 101.763 22.733 101.697C22.733 101.631 22.7445 101.6 22.7638 101.6C23.1489 101.6 23.4416 101.573 23.6457 101.519C23.8498 101.464 23.9884 101.356 24.0616 101.196C24.1348 101.033 24.1733 100.797 24.1733 100.486V93.0092C24.1733 92.6987 24.1386 92.4619 24.0693 92.3066C24 92.1513 23.8652 92.0426 23.6688 91.9844C23.4724 91.9262 23.1797 91.8951 22.7946 91.8951C22.7638 91.8951 22.7484 91.864 22.7484 91.7981C22.7484 91.7321 22.7638 91.701 22.7946 91.701C23.0526 91.701 23.3376 91.7088 23.6611 91.7243C23.9846 91.7398 24.3196 91.7476 24.6701 91.7476C24.9473 91.7476 25.267 91.7321 25.6328 91.701C25.9948 91.6699 26.3068 91.6544 26.561 91.6544C27.1925 91.6544 27.7047 91.7476 28.0975 91.9378C28.4942 92.128 28.783 92.3804 28.9717 92.7064C29.1604 93.0325 29.2529 93.3897 29.2529 93.7895C29.2529 94.4029 29.0295 94.927 28.5866 95.354C28.1438 95.7849 27.5738 96.0916 26.8806 96.274L26.8767 96.2663ZM26.2028 91.8912C25.9563 91.8912 25.7599 91.9145 25.6097 91.9572C25.4595 91.9999 25.3517 92.1008 25.2901 92.2561C25.2246 92.4114 25.1938 92.6754 25.1938 93.0403V96.2041L24.6816 96.076C25.0244 96.0993 25.3055 96.111 25.5289 96.1149C25.7522 96.1187 25.8832 96.1226 25.914 96.1226C26.7343 96.1226 27.3235 95.9091 27.6778 95.486C28.0321 95.0628 28.2054 94.5349 28.2054 93.9099C28.2054 93.5333 28.1399 93.1917 28.0051 92.885C27.8703 92.5783 27.6624 92.3376 27.3735 92.1591C27.0847 91.9805 26.6957 91.8912 26.2028 91.8912ZM26.7805 101.565C27.5815 101.565 28.1669 101.359 28.5327 100.944C28.9024 100.529 29.0873 99.9581 29.0873 99.2244C29.0873 98.4169 28.8524 97.7531 28.3825 97.2368C27.9127 96.7204 27.2542 96.4604 26.4108 96.4604C26.145 96.4487 25.8678 96.4487 25.5866 96.4604C25.3017 96.472 25.0167 96.4992 24.7278 96.5419L25.1938 96.3633V100.482C25.1938 100.742 25.2323 100.952 25.3055 101.111C25.3787 101.274 25.5327 101.387 25.7638 101.457C25.9948 101.526 26.3337 101.561 26.7805 101.561V101.565Z" fill="#fff"/>
<path d="M54.5738 93.4712C54.5738 92.9432 54.4583 92.5473 54.2311 92.2833C54 92.0193 53.6534 91.8873 53.1836 91.8873C53.1528 91.8873 53.1373 91.8563 53.1373 91.7903C53.1373 91.7243 53.1528 91.6932 53.1836 91.6932C53.43 91.6932 53.6803 91.701 53.9384 91.7165C54.1964 91.7321 54.4775 91.7398 54.7895 91.7398C55.0359 91.7398 55.2863 91.7321 55.5443 91.7165C55.8023 91.701 56.0372 91.6932 56.249 91.6932C56.2721 91.6932 56.2798 91.7243 56.2798 91.7903C56.2798 91.8563 56.2683 91.8873 56.249 91.8873C55.8216 91.8873 55.5019 92.0193 55.2863 92.2833C55.0744 92.5473 54.9666 92.9432 54.9666 93.4712V98.0559C54.9666 98.8866 54.8087 99.5931 54.4929 100.179C54.1771 100.766 53.7381 101.216 53.172 101.526C52.6059 101.837 51.9435 101.996 51.1848 101.996C50.4262 101.996 49.7022 101.841 49.1091 101.526C48.516 101.212 48.0578 100.769 47.7304 100.195C47.4031 99.6203 47.2413 98.9448 47.2413 98.1684V93.0015C47.2413 92.6909 47.2105 92.4541 47.145 92.2988C47.0796 92.1436 46.9486 92.0349 46.7522 91.9766C46.5558 91.9184 46.2631 91.8873 45.878 91.8873C45.8549 91.8873 45.8472 91.8563 45.8472 91.7903C45.8472 91.7243 45.8588 91.6932 45.878 91.6932C46.1361 91.6932 46.421 91.701 46.7368 91.7165C47.0526 91.7321 47.3915 91.7398 47.7535 91.7398C48.1155 91.7398 48.4737 91.7321 48.7933 91.7165C49.113 91.701 49.3902 91.6932 49.6251 91.6932C49.656 91.6932 49.6714 91.7243 49.6714 91.7903C49.6714 91.8563 49.656 91.8873 49.6251 91.8873C49.24 91.8873 48.9512 91.9184 48.7587 91.9844C48.5661 92.0504 48.439 92.163 48.3735 92.3221C48.3081 92.4813 48.2773 92.722 48.2773 93.0325V97.6017C48.2773 98.8827 48.5622 99.8532 49.1361 100.517C49.706 101.181 50.507 101.511 51.5314 101.511C52.4942 101.511 53.2413 101.208 53.7728 100.599C54.3081 99.9891 54.5738 99.1467 54.5738 98.0714V93.4712Z" fill="#fff"/>
<path d="M77.6418 91.5186C78.1347 91.5186 78.6431 91.5651 79.1707 91.6622C79.6983 91.7592 80.1219 91.899 80.4454 92.0814C80.5417 92.1358 80.6033 92.1824 80.6302 92.2251C80.6572 92.2678 80.6765 92.3493 80.688 92.4658L80.8652 94.2748C80.8652 94.2981 80.8382 94.3136 80.7843 94.333C80.7304 94.3524 80.6996 94.333 80.688 94.2942C80.4415 93.4207 79.9948 92.7996 79.344 92.4308C78.6932 92.0582 77.9191 91.8718 77.0218 91.8718C76.1976 91.8718 75.4852 92.0504 74.8844 92.4114C74.2798 92.7724 73.8138 93.2771 73.4826 93.9293C73.1514 94.5815 72.9858 95.3423 72.9858 96.2158C72.9858 96.9806 73.1014 97.6987 73.3401 98.3703C73.5751 99.0419 73.9024 99.632 74.326 100.141C74.7496 100.645 75.2349 101.041 75.7856 101.328C76.3363 101.616 76.9216 101.755 77.5378 101.755C78.2849 101.755 78.9435 101.55 79.5173 101.134C80.0872 100.719 80.5301 100.059 80.8382 99.1545C80.8498 99.1118 80.8844 99.0963 80.9422 99.1157C81 99.1351 81.0308 99.1506 81.0308 99.1739L80.8074 100.998C80.7843 101.127 80.7612 101.212 80.7342 101.247C80.7073 101.286 80.6457 101.325 80.5494 101.367C80.0372 101.585 79.5288 101.74 79.0282 101.837C78.5276 101.934 78.0192 101.981 77.507 101.981C76.4903 101.981 75.62 101.821 74.896 101.503C74.1681 101.185 73.5751 100.766 73.1168 100.245C72.6585 99.7251 72.3196 99.1467 72.1078 98.5178C71.896 97.8889 71.7881 97.2678 71.7881 96.6545C71.7881 95.8781 71.9499 95.1793 72.2695 94.5543C72.5892 93.9293 73.0282 93.3897 73.5828 92.9394C74.1373 92.4891 74.765 92.1358 75.4659 91.8912C76.1668 91.6428 76.8947 91.5186 77.6534 91.5186H77.6418Z" fill="#fff"/>
<path d="M103.513 101.79H96.801C96.7779 101.79 96.7702 101.759 96.7702 101.693C96.7702 101.627 96.7818 101.596 96.801 101.596C97.1977 101.596 97.4904 101.569 97.6829 101.515C97.8755 101.46 98.0064 101.352 98.0757 101.193C98.145 101.029 98.1797 100.793 98.1797 100.482V93.0054C98.1797 92.6948 98.145 92.458 98.0757 92.3027C98.0064 92.1474 97.8755 92.0387 97.6829 91.9805C97.4904 91.9223 97.1977 91.8912 96.801 91.8912C96.7779 91.8912 96.7702 91.8602 96.7702 91.7942C96.7702 91.7282 96.7818 91.6971 96.801 91.6971H103.24C103.336 91.6971 103.383 91.7437 103.383 91.8407L103.413 93.8283C103.413 93.8594 103.383 93.8788 103.325 93.8866C103.267 93.8905 103.236 93.8788 103.236 93.8477C103.205 93.2654 103.032 92.819 102.716 92.5085C102.4 92.1979 101.992 92.0387 101.492 92.0387H100.513C100.151 92.0387 99.8742 92.0659 99.6893 92.1203C99.5006 92.1746 99.3735 92.2755 99.3042 92.4269C99.2349 92.5783 99.2002 92.7996 99.2002 93.0908V100.42C99.2002 100.7 99.2349 100.917 99.3042 101.064C99.3735 101.216 99.4968 101.317 99.6739 101.371C99.8511 101.425 100.113 101.453 100.467 101.453H101.75C102.262 101.453 102.693 101.266 103.04 100.894C103.386 100.521 103.614 100.02 103.721 99.3835C103.721 99.3525 103.752 99.3408 103.818 99.3524C103.883 99.3641 103.914 99.3835 103.914 99.4184C103.872 99.698 103.837 100.04 103.81 100.436C103.783 100.835 103.771 101.204 103.771 101.55C103.771 101.713 103.687 101.79 103.513 101.79ZM102.616 98.0287C102.616 97.5551 102.501 97.2173 102.273 97.0116C102.042 96.8058 101.661 96.7049 101.13 96.7049H98.7266V96.3672H101.176C101.688 96.3672 102.054 96.2779 102.273 96.0993C102.493 95.9207 102.601 95.6335 102.601 95.2336C102.601 95.2103 102.632 95.2026 102.697 95.2026C102.763 95.2026 102.793 95.2142 102.793 95.2336C102.793 95.5558 102.793 95.8082 102.786 95.9829C102.782 96.1614 102.778 96.3478 102.778 96.5419C102.778 96.7903 102.782 97.031 102.793 97.2678C102.805 97.5046 102.809 97.7569 102.809 98.0287C102.809 98.052 102.778 98.0597 102.712 98.0597C102.647 98.0597 102.616 98.0481 102.616 98.0287Z" fill="#fff"/>
<path d="M123.632 91.6466C124.506 91.6466 125.176 91.8252 125.642 92.1862C126.108 92.5473 126.339 93.0403 126.339 93.6653C126.339 94.0729 126.246 94.4611 126.065 94.8182C125.884 95.1793 125.638 95.4976 125.33 95.7693C125.022 96.045 124.66 96.2624 124.248 96.4215C123.836 96.5846 123.408 96.6622 122.958 96.6622C122.85 96.6622 122.73 96.6622 122.596 96.6544C122.461 96.6506 122.341 96.6428 122.234 96.6311V100.474C122.234 100.785 122.264 101.022 122.322 101.185C122.38 101.348 122.511 101.453 122.707 101.507C122.904 101.561 123.2 101.588 123.597 101.588C123.628 101.588 123.643 101.62 123.643 101.686C123.643 101.752 123.628 101.783 123.597 101.783C123.339 101.783 123.054 101.779 122.738 101.767C122.422 101.755 122.08 101.752 121.706 101.752C121.352 101.752 121.013 101.755 120.689 101.767C120.362 101.779 120.065 101.783 119.8 101.783C119.777 101.783 119.769 101.752 119.769 101.686C119.769 101.62 119.78 101.588 119.8 101.588C120.196 101.588 120.489 101.561 120.689 101.507C120.886 101.453 121.024 101.344 121.098 101.185C121.171 101.022 121.209 100.785 121.209 100.474V92.9976C121.209 92.687 121.175 92.4502 121.105 92.2949C121.036 92.1397 120.905 92.031 120.712 91.9727C120.52 91.9145 120.227 91.8834 119.831 91.8834C119.8 91.8834 119.784 91.8524 119.784 91.7864C119.784 91.7204 119.8 91.6893 119.831 91.6893C120.089 91.6893 120.374 91.6971 120.697 91.7126C121.021 91.7282 121.356 91.7359 121.706 91.7359C121.983 91.7359 122.311 91.7204 122.684 91.6893C123.058 91.6583 123.374 91.6428 123.628 91.6428L123.632 91.6466ZM125.249 94.2321C125.249 93.642 125.16 93.1762 124.983 92.8345C124.806 92.4929 124.575 92.2522 124.286 92.1086C123.997 91.965 123.666 91.8912 123.293 91.8912C123.035 91.8912 122.827 91.9145 122.669 91.9572C122.507 91.9999 122.395 92.1008 122.334 92.2639C122.268 92.4269 122.237 92.6831 122.237 93.0403V96.2391C122.388 96.2624 122.546 96.2779 122.719 96.2857C122.888 96.2973 123.046 96.3012 123.185 96.3012C123.92 96.3012 124.452 96.142 124.771 95.8237C125.091 95.5054 125.253 94.9774 125.253 94.2321H125.249ZM127.987 101.79C127.806 101.79 127.513 101.577 127.113 101.146C126.712 100.715 126.227 100.098 125.653 99.2981C125.083 98.4945 124.444 97.5395 123.739 96.4332L124.637 96.142C125.546 97.4968 126.316 98.5722 126.951 99.3641C127.587 100.156 128.149 100.727 128.634 101.076C129.119 101.425 129.585 101.6 130.036 101.6C130.067 101.6 130.082 101.631 130.082 101.697C130.082 101.763 130.067 101.794 130.036 101.794H127.987V101.79Z" fill="#fff"/>
<path d="M147.485 100.482C147.485 100.793 147.516 101.029 147.582 101.193C147.647 101.356 147.778 101.46 147.974 101.515C148.171 101.569 148.463 101.596 148.849 101.596C148.879 101.596 148.895 101.627 148.895 101.693C148.895 101.759 148.879 101.79 148.849 101.79C148.59 101.79 148.306 101.786 147.99 101.775C147.674 101.763 147.323 101.759 146.942 101.759C146.588 101.759 146.249 101.763 145.926 101.775C145.598 101.786 145.309 101.79 145.051 101.79C145.021 101.79 145.005 101.759 145.005 101.693C145.005 101.627 145.021 101.596 145.051 101.596C145.436 101.596 145.729 101.569 145.933 101.515C146.137 101.46 146.268 101.352 146.334 101.193C146.399 101.029 146.43 100.793 146.43 100.482V93.0054C146.43 92.6948 146.399 92.458 146.334 92.3027C146.268 92.1474 146.137 92.0387 145.933 91.9805C145.729 91.9223 145.436 91.8912 145.051 91.8912C145.021 91.8912 145.005 91.8602 145.005 91.7942C145.005 91.7282 145.021 91.6971 145.051 91.6971C145.309 91.6971 145.598 91.7049 145.926 91.7204C146.253 91.7359 146.592 91.7437 146.942 91.7437C147.327 91.7437 147.678 91.7359 148.001 91.7204C148.321 91.7049 148.606 91.6971 148.852 91.6971C148.883 91.6971 148.899 91.7282 148.899 91.7942C148.899 91.8602 148.883 91.8912 148.852 91.8912C148.467 91.8912 148.178 91.9223 147.978 91.9883C147.782 92.0543 147.651 92.1668 147.585 92.326C147.52 92.4852 147.489 92.7258 147.489 93.0364V100.482H147.485ZM145.402 90.8237C145.359 90.847 145.329 90.8237 145.306 90.7654C145.282 90.7072 145.29 90.6723 145.321 90.6606C145.822 90.4005 146.28 90.1404 146.692 89.8764C147.104 89.6125 147.516 89.364 147.932 89.1272C147.963 89.0962 148.047 89.1 148.178 89.1427C148.313 89.1854 148.452 89.2398 148.594 89.3058C148.737 89.3718 148.852 89.43 148.929 89.4844C149.01 89.5387 149.018 89.5698 148.952 89.5814C148.236 89.7522 147.601 89.9424 147.046 90.1482C146.492 90.3539 145.941 90.5791 145.398 90.8275L145.402 90.8237Z" fill="#fff"/>
<path d="M175.213 101.596C175.255 101.596 175.279 101.627 175.279 101.693C175.279 101.759 175.255 101.79 175.213 101.79C174.905 101.79 174.589 101.779 174.27 101.759C173.95 101.74 173.638 101.728 173.341 101.728C173.01 101.728 172.721 101.74 172.475 101.759C172.228 101.779 171.955 101.79 171.659 101.79C171.616 101.79 171.593 101.759 171.593 101.693C171.593 101.627 171.616 101.596 171.659 101.596C172.225 101.596 172.575 101.515 172.718 101.344C172.856 101.177 172.818 100.863 172.606 100.401L169.051 92.8268L169.452 92.326L166.344 99.7368C166.078 100.393 166.063 100.866 166.298 101.158C166.533 101.449 166.999 101.592 167.692 101.592C167.746 101.592 167.773 101.623 167.773 101.689C167.773 101.755 167.746 101.786 167.692 101.786C167.372 101.786 167.08 101.775 166.81 101.755C166.544 101.732 166.205 101.724 165.801 101.724C165.416 101.724 165.108 101.736 164.881 101.755C164.65 101.779 164.368 101.786 164.041 101.786C163.999 101.786 163.976 101.755 163.976 101.689C163.976 101.623 163.999 101.592 164.041 101.592C164.33 101.592 164.58 101.534 164.796 101.422C165.008 101.309 165.208 101.111 165.397 100.824C165.581 100.54 165.789 100.129 166.013 99.5893L169.394 91.5496C169.417 91.5185 169.452 91.503 169.506 91.503C169.56 91.503 169.59 91.5185 169.602 91.5496L173.384 99.5737C173.63 100.102 173.85 100.513 174.042 100.808C174.235 101.103 174.424 101.309 174.612 101.422C174.797 101.534 175.005 101.592 175.228 101.592L175.213 101.596ZM167.426 96.4448L167.665 96.1071H170.965L171.077 96.4448H167.426Z" fill="#fff"/>
<path d="M191.985 93.5877C191.985 94.0302 192.092 94.4068 192.312 94.7251C192.531 95.0434 192.813 95.319 193.151 95.5559C193.494 95.7927 193.856 96.0295 194.241 96.2663C194.638 96.4914 195.019 96.736 195.385 96.9922C195.755 97.2523 196.059 97.559 196.298 97.9122C196.537 98.2694 196.66 98.7042 196.66 99.2205C196.66 99.7368 196.533 100.203 196.275 100.618C196.017 101.033 195.647 101.363 195.162 101.612C194.676 101.86 194.076 101.984 193.359 101.984C193.101 101.984 192.851 101.965 192.597 101.926C192.347 101.887 192.096 101.825 191.842 101.74C191.592 101.654 191.341 101.546 191.099 101.418C191.045 101.387 191.01 101.344 190.995 101.297C190.979 101.251 190.964 101.189 190.956 101.111L190.748 98.9138C190.737 98.8595 190.764 98.8323 190.822 98.8245C190.879 98.8206 190.914 98.84 190.926 98.8827C190.999 99.2049 191.107 99.5349 191.245 99.8688C191.384 100.203 191.565 100.509 191.788 100.789C192.012 101.068 192.285 101.293 192.605 101.468C192.924 101.639 193.298 101.728 193.725 101.728C194.033 101.728 194.338 101.67 194.63 101.55C194.923 101.433 195.166 101.239 195.35 100.967C195.539 100.7 195.632 100.331 195.632 99.8688C195.632 99.3408 195.516 98.9022 195.289 98.5528C195.058 98.2034 194.769 97.9006 194.415 97.6405C194.06 97.3804 193.687 97.1397 193.294 96.9146C192.92 96.6778 192.558 96.4371 192.212 96.1886C191.865 95.9402 191.58 95.649 191.361 95.3074C191.141 94.9658 191.033 94.5465 191.033 94.038C191.033 93.4673 191.18 92.9976 191.465 92.6249C191.753 92.2523 192.127 91.9766 192.585 91.7942C193.044 91.6117 193.521 91.5186 194.01 91.5186C194.311 91.5186 194.619 91.5496 194.938 91.6078C195.258 91.6661 195.574 91.767 195.882 91.9068C195.967 91.9378 196.028 91.9805 196.067 92.0271C196.105 92.0737 196.124 92.128 196.124 92.1824L196.236 94.0225C196.236 94.0652 196.209 94.0884 196.155 94.0962C196.101 94.1001 196.063 94.0846 196.044 94.038C196.02 93.8245 195.963 93.5838 195.866 93.3198C195.77 93.0558 195.632 92.8074 195.451 92.5706C195.27 92.3338 195.038 92.1397 194.761 91.9883C194.484 91.8369 194.149 91.7631 193.752 91.7631C193.336 91.7631 192.997 91.8524 192.736 92.031C192.474 92.2096 192.281 92.4347 192.158 92.7103C192.035 92.986 191.973 93.2771 191.973 93.5916L191.985 93.5877Z" fill="#fff"/>
<path d="M0 65.3033L29.9846 0H33.0385L63.027 65.3033H59.6033L30.8164 2.14676H32.2067L3.42362 65.3033H0Z" fill="#fff"/>
<path d="M62.3492 65.3033V0H65.4955V62.4112H103.44V65.3033H62.3492Z" fill="#fff"/>
<path d="M106.96 65.3033V0H109.552L140.091 53.4554H138.701L169.059 0H171.651L171.743 65.3033H168.689L168.597 4.6623H169.614L140.184 56.2504H138.516L108.901 4.66618H110.01V65.3072H106.956L106.96 65.3033Z" fill="#fff"/>
<path d="M170.973 65.3033L200.961 0H204.015L234 65.3033H230.576L201.793 2.14676H203.184L174.4 65.3033H170.977H170.973Z" fill="#fff"/>
</g>
<defs>
<clipPath id="clip0_9_83">
<rect width="234" height="102" fill="white"/>
</clipPath>
</defs>
</svg>
