<?xml version="1.0" encoding="UTF-8"?>
<svg xmlns="http://www.w3.org/2000/svg" viewBox="0 0 850 956">
  <defs>
    <style>
      .cls-1 {
        fill: #f7e93a;
      }

      .cls-1, .cls-2, .cls-3 {
        mix-blend-mode: multiply;
        opacity: .69;
        stroke-width: 0px;
      }

      .cls-2 {
        fill: #c10e1a;
      }

      .cls-4 {
        fill: none;
        stroke: #fff;
        stroke-miterlimit: 10;
      }

      .cls-3 {
        fill: #334a43;
      }

      .cls-5 {
        isolation: isolate;
      }

      .cls-6 {
        fill: #fff;
        font-family: OpenSans-Medium, 'Open Sans';
        font-size: 24.07px;
        font-weight: 500;
      }
    </style>
  </defs>
  <g class="cls-5">
    <g id="Capa_2" data-name="Capa 2">
      <g id="Fachada_Frente" data-name="Fachada Frente">
        <g>
          <g>
            <polygon class="cls-3" points="205.21 176.4 347.89 176.4 342.4 333.35 199.72 333.35 205.21 176.4"/>
            <polygon class="cls-3" points="365.45 176.4 508.14 176.4 502.65 333.35 359.96 333.35 365.45 176.4"/>
            <polygon class="cls-3" points="521.41 176.4 652.47 176.4 647.42 333.35 516.37 333.35 521.41 176.4"/>
            <rect class="cls-2" x="199.72" y="345.43" width="145.26" height="68.05"/>
            <rect class="cls-3" x="199.72" y="425.55" width="142.34" height="68.05"/>
            <rect class="cls-3" x="196.8" y="509.34" width="145.26" height="68.05"/>
            <rect class="cls-3" x="193.89" y="594.27" width="148.17" height="68.05"/>
            <rect class="cls-3" x="190.97" y="679.7" width="148.17" height="68.05"/>
            <rect class="cls-1" x="359.96" y="345.43" width="148.17" height="68.05"/>
            <rect class="cls-3" x="359.96" y="425.55" width="148.17" height="68.05"/>
            <rect class="cls-3" x="359.96" y="505.67" width="148.17" height="68.05"/>
            <rect class="cls-3" x="359.96" y="594.27" width="148.17" height="68.05"/>
            <rect class="cls-1" x="359.96" y="679.7" width="148.17" height="68.05"/>
            <rect class="cls-3" x="524.6" y="345.43" width="127.32" height="68.05"/>
            <rect class="cls-3" x="524.6" y="425.55" width="127.32" height="68.05"/>
            <rect class="cls-3" x="524.6" y="505.67" width="127.32" height="68.05"/>
            <rect class="cls-3" x="524.6" y="591.36" width="127.32" height="68.05"/>
            <rect class="cls-3" x="524.6" y="679.7" width="127.32" height="68.05"/>
          </g>
          <rect class="cls-4" x=".5" y=".5" width="849" height="955"/>
          <g>
            <text class="cls-6" transform="translate(253.16 261.85)"><tspan x="0" y="0">603</tspan></text>
            <text class="cls-6" transform="translate(413.41 261.85)"><tspan x="0" y="0">602</tspan></text>
            <text class="cls-6" transform="translate(563.77 261.85)"><tspan x="0" y="0">601</tspan></text>
            <text class="cls-6" transform="translate(251.7 386.43)"><tspan x="0" y="0">503</tspan></text>
            <text class="cls-6" transform="translate(413.41 386.43)"><tspan x="0" y="0">502</tspan></text>
            <text class="cls-6" transform="translate(567.61 386.43)"><tspan x="0" y="0">501</tspan></text>
            <text class="cls-6" transform="translate(250.25 466.55)"><tspan x="0" y="0">403</tspan></text>
            <text class="cls-6" transform="translate(413.41 466.55)"><tspan x="0" y="0">402</tspan></text>
            <text class="cls-6" transform="translate(567.61 466.55)"><tspan x="0" y="0">401</tspan></text>
            <text class="cls-6" transform="translate(248.79 550.34)"><tspan x="0" y="0">303</tspan></text>
            <text class="cls-6" transform="translate(413.41 546.67)"><tspan x="0" y="0">302</tspan></text>
            <text class="cls-6" transform="translate(567.61 546.67)"><tspan x="0" y="0">301</tspan></text>
            <text class="cls-6" transform="translate(247.33 635.27)"><tspan x="0" y="0">203</tspan></text>
            <text class="cls-6" transform="translate(413.41 635.27)"><tspan x="0" y="0">202</tspan></text>
            <text class="cls-6" transform="translate(567.61 632.36)"><tspan x="0" y="0">201</tspan></text>
            <text class="cls-6" transform="translate(244.42 720.7)"><tspan x="0" y="0">103</tspan></text>
            <text class="cls-6" transform="translate(413.41 720.7)"><tspan x="0" y="0">102</tspan></text>
            <text class="cls-6" transform="translate(567.61 720.7)"><tspan x="0" y="0">101</tspan></text>
          </g>
        </g>
      </g>
    </g>
  </g>
</svg>